<?xml version="1.0" encoding="UTF-8" standalone="no"?>
<!-- Created with Inkscape (http://www.inkscape.org/) -->

<svg
   xmlns:dc="http://purl.org/dc/elements/1.1/"
   xmlns:cc="http://creativecommons.org/ns#"
   xmlns:rdf="http://www.w3.org/1999/02/22-rdf-syntax-ns#"
   xmlns:svg="http://www.w3.org/2000/svg"
   xmlns="http://www.w3.org/2000/svg"
   xmlns:sodipodi="http://sodipodi.sourceforge.net/DTD/sodipodi-0.dtd"
   xmlns:inkscape="http://www.inkscape.org/namespaces/inkscape"
   width="102.48653mm"
   height="37.152195mm"
   viewBox="0 0 102.48653 37.152195"
   version="1.1"
   id="svg1605"
   inkscape:version="0.92.4 (unknown)"
   sodipodi:docname="topology refinement.svg">
  <defs
     id="defs1599">
    <clipPath
       clipPathUnits="userSpaceOnUse"
       id="clipPath32">
      <path
         d="M 309.345,676.133 H 453.06 V 607.917 H 309.345 Z"
         id="path30"
         inkscape:connector-curvature="0" />
    </clipPath>
    <clipPath
       clipPathUnits="userSpaceOnUse"
       id="clipPath18">
      <path
         d="M 162.555,676.133 H 306.27 V 607.917 H 162.555 Z"
         id="path16"
         inkscape:connector-curvature="0" />
    </clipPath>
  </defs>
  <sodipodi:namedview
     id="base"
     pagecolor="#ffffff"
     bordercolor="#666666"
     borderopacity="1.0"
     inkscape:pageopacity="0.0"
     inkscape:pageshadow="2"
     inkscape:zoom="0.7"
     inkscape:cx="167.04214"
     inkscape:cy="131.40185"
     inkscape:document-units="mm"
     inkscape:current-layer="layer1"
     showgrid="false"
     fit-margin-top="0"
     fit-margin-left="0"
     fit-margin-right="0"
     fit-margin-bottom="0" />
  <metadata
     id="metadata1602">
    <rdf:RDF>
      <cc:Work
         rdf:about="">
        <dc:format>image/svg+xml</dc:format>
        <dc:type
           rdf:resource="http://purl.org/dc/dcmitype/StillImage" />
        <dc:title></dc:title>
      </cc:Work>
    </rdf:RDF>
  </metadata>
  <g
     inkscape:label="Layer 1"
     inkscape:groupmode="layer"
     id="layer1"
     transform="translate(-40.225559,-21.140078)">
    <path
       d="m 40.911356,23.113163 c 0,0.18168 -0.14746,0.329142 -0.32914,0.329142 -0.18168,0 -0.32914,-0.147462 -0.32914,-0.329142 0,-0.181681 0.14746,-0.329142 0.32914,-0.329142 0.18168,0 0.32914,0.147461 0.32914,0.329142 m 11.78984,0.9525 c 0,0.18168 -0.14746,0.329141 -0.32914,0.329141 -0.18169,0 -0.32915,-0.147461 -0.32915,-0.329141 0,-0.181681 0.14746,-0.329142 0.32915,-0.329142 0.18168,0 0.32914,0.147461 0.32914,0.329142 m 8.3185,-0.783167 c 0,0.181681 -0.14746,0.329142 -0.32915,0.329142 -0.18168,0 -0.32914,-0.147461 -0.32914,-0.329142 0,-0.18168 0.14746,-0.329141 0.32914,-0.329141 0.18169,0 0.32915,0.147461 0.32915,0.329141 m 7.747,-0.211666 c 0,0.18168 -0.14747,0.329141 -0.32914,0.329141 -0.18169,0 -0.32915,-0.147461 -0.32915,-0.329141 0,-0.181681 0.14746,-0.329142 0.32915,-0.329142 0.18167,0 0.32914,0.147461 0.32914,0.329142 m 10.159998,-0.719667 c 0,0.181681 -0.147463,0.329142 -0.329142,0.329142 -0.181681,0 -0.329142,-0.147461 -0.329142,-0.329142 0,-0.181681 0.147461,-0.329142 0.329142,-0.329142 0.181679,0 0.329142,0.147461 0.329142,0.329142 m 10.033,-0.148167 c 0,0.181681 -0.147463,0.329142 -0.329142,0.329142 -0.181681,0 -0.329142,-0.147461 -0.329142,-0.329142 0,-0.18168 0.147461,-0.329141 0.329142,-0.329141 0.181679,0 0.329142,0.147461 0.329142,0.329141 m 0.910166,10.4775 c 0,0.18168 -0.147463,0.329141 -0.329141,0.329141 -0.181682,0 -0.329142,-0.147461 -0.329142,-0.329141 0,-0.181681 0.14746,-0.329142 0.329142,-0.329142 0.181678,0 0.329141,0.147461 0.329141,0.329142 m -9.757833,-0.0635 c 0,0.18168 -0.147463,0.329141 -0.329142,0.329141 -0.181681,0 -0.329141,-0.147461 -0.329141,-0.329141 0,-0.181681 0.14746,-0.329142 0.329141,-0.329142 0.181679,0 0.329142,0.147461 0.329142,0.329142 M 69.168856,31.685662 c 0,0.181681 -0.14746,0.329142 -0.32914,0.329142 -0.18168,0 -0.32914,-0.147461 -0.32914,-0.329142 0,-0.18168 0.14746,-0.329141 0.32914,-0.329141 0.18168,0 0.32914,0.147461 0.32914,0.329141 m -8.14916,-0.592666 c 0,0.18168 -0.14746,0.329141 -0.32915,0.329141 -0.18168,0 -0.32914,-0.147461 -0.32914,-0.329141 0,-0.18168 0.14746,-0.329142 0.32914,-0.329142 0.18169,0 0.32915,0.147462 0.32915,0.329142 m -10.07534,-0.613833 c 0,0.18168 -0.14746,0.329141 -0.32914,0.329141 -0.18168,0 -0.32914,-0.147461 -0.32914,-0.329141 0,-0.181681 0.14746,-0.329142 0.32914,-0.329142 0.18168,0 0.32914,0.147461 0.32914,0.329142 m -8.8265,-0.402167 c 0,0.181681 -0.14746,0.329142 -0.32914,0.329142 -0.18168,0 -0.32914,-0.147461 -0.32914,-0.329142 0,-0.18168 0.14746,-0.329142 0.32914,-0.329142 0.18168,0 0.32914,0.147462 0.32914,0.329142 m -0.889,9.419166 c 0,0.181681 -0.14746,0.329142 -0.32914,0.329142 -0.18168,0 -0.32914,-0.147461 -0.32914,-0.329142 0,-0.181681 0.14746,-0.329142 0.32914,-0.329142 0.18168,0 0.32914,0.147461 0.32914,0.329142 m 3.83117,5.037667 c 0,0.18168 -0.14746,0.329141 -0.32914,0.329141 -0.18168,0 -0.32914,-0.147461 -0.32914,-0.329141 0,-0.181681 0.14746,-0.329142 0.32914,-0.329142 0.18168,0 0.32914,0.147461 0.32914,0.329142 m 10.58333,-0.3175 c 0,0.18168 -0.14746,0.329141 -0.32914,0.329141 -0.18168,0 -0.32914,-0.147461 -0.32914,-0.329141 0,-0.181681 0.14746,-0.329142 0.32914,-0.329142 0.18168,0 0.32914,0.147461 0.32914,0.329142 m 9.50384,-0.211667 c 0,0.18168 -0.14746,0.329142 -0.32915,0.329142 -0.18168,0 -0.32914,-0.147462 -0.32914,-0.329142 0,-0.181681 0.14746,-0.329142 0.32914,-0.329142 0.18169,0 0.32915,0.147461 0.32915,0.329142 m 7.514164,-1.100667 c 0,0.181681 -0.147463,0.329142 -0.329141,0.329142 -0.181682,0 -0.329143,-0.147461 -0.329143,-0.329142 0,-0.18168 0.147461,-0.329141 0.329143,-0.329141 0.181678,0 0.329141,0.147461 0.329141,0.329141 m 9.059334,-0.762 c 0,0.181681 -0.147463,0.329142 -0.329142,0.329142 -0.181681,0 -0.329142,-0.147461 -0.329142,-0.329142 0,-0.18168 0.147461,-0.329141 0.329142,-0.329141 0.181679,0 0.329142,0.147461 0.329142,0.329141 m 7.535333,0.423334 c 0,0.18168 -0.147463,0.329141 -0.329142,0.329141 -0.181681,0 -0.329141,-0.147461 -0.329141,-0.329141 0,-0.181681 0.14746,-0.329142 0.329141,-0.329142 0.181679,0 0.329142,0.147461 0.329142,0.329142 M 40.577636,23.11281 l 11.79477,0.950736 m 0,3.44e-4 8.31144,-0.786342 m 0,0 7.75335,-0.201436 m 0,0 10.16741,-0.722136 m 0,0 10.030179,-0.155575 m 0,0 0.9144,10.478205 m 0,0 -9.765241,-0.05468 m 0,0 -10.953748,-0.932744 m 0,0 -8.12836,-0.603602 m 0,0 -10.07568,-0.612422 m 0,0 -8.84167,-0.393348 m 0,0 -0.88688,9.408583 m 0,0 3.83116,5.0472 m 0,0 10.59709,-0.310797 m 0,0 9.4996,-0.21978 m 0,0 7.506763,-1.097139 m 0,0 9.070268,-0.758825"
       style="fill:none;stroke:#000000;stroke-width:0.05503333;stroke-linecap:butt;stroke-linejoin:round;stroke-miterlimit:10;stroke-dasharray:none;stroke-opacity:1"
       id="path22"
       inkscape:connector-curvature="0" />
    <path
       d="m 81.720694,42.141995 7.515577,0.411339"
       style="fill:none;stroke:#000000;stroke-width:0.05503333;stroke-linecap:butt;stroke-linejoin:round;stroke-miterlimit:10;stroke-dasharray:none;stroke-opacity:1"
       id="path24"
       inkscape:connector-curvature="0" />
    <g
       transform="matrix(0.35277777,0,0,-0.35277777,-17.117407,259.66477)"
       id="g26">
      <g
         id="g28"
         clip-path="url(#clipPath32)">
        <path
           d="m 287.911,571.891 h 179.274 v 134.41 H 287.911 Z"
           style="fill:#ffffff;fill-opacity:1;fill-rule:nonzero;stroke:none"
           id="path34"
           inkscape:connector-curvature="0" />
      </g>
    </g>
    <path
       d="m 93.003234,23.106107 c 0,0.18168 -0.147463,0.329142 -0.329142,0.329142 -0.181681,0 -0.329141,-0.147462 -0.329141,-0.329142 0,-0.181681 0.14746,-0.329142 0.329141,-0.329142 0.181679,0 0.329142,0.147461 0.329142,0.329142 m 11.810996,0.9525 c 0,0.18168 -0.14746,0.329141 -0.32914,0.329141 -0.18168,0 -0.32914,-0.147461 -0.32914,-0.329141 0,-0.181681 0.14746,-0.329142 0.32914,-0.329142 0.18168,0 0.32914,0.147461 0.32914,0.329142 m 8.29733,-0.783167 c 0,0.181681 -0.14746,0.329142 -0.32914,0.329142 -0.18168,0 -0.32914,-0.147461 -0.32914,-0.329142 0,-0.18168 0.14746,-0.329141 0.32914,-0.329141 0.18168,0 0.32914,0.147461 0.32914,0.329141 m 7.747,-0.211666 c 0,0.18168 -0.14746,0.329141 -0.32914,0.329141 -0.18168,0 -0.32914,-0.147461 -0.32914,-0.329141 0,-0.181681 0.14746,-0.329142 0.32914,-0.329142 0.18168,0 0.32914,0.147461 0.32914,0.329142 m 10.18117,-0.719667 c 0,0.181681 -0.14746,0.329142 -0.32914,0.329142 -0.18168,0 -0.32914,-0.147461 -0.32914,-0.329142 0,-0.181681 0.14746,-0.329142 0.32914,-0.329142 0.18168,0 0.32914,0.147461 0.32914,0.329142 m 10.033,-0.148167 c 0,0.181681 -0.14746,0.329142 -0.32914,0.329142 -0.18169,0 -0.32915,-0.147461 -0.32915,-0.329142 0,-0.18168 0.14746,-0.329141 0.32915,-0.329141 0.18168,0 0.32914,0.147461 0.32914,0.329141 m 0.91016,10.4775 c 0,0.18168 -0.14746,0.329141 -0.32914,0.329141 -0.18168,0 -0.32914,-0.147461 -0.32914,-0.329141 0,-0.181681 0.14746,-0.329142 0.32914,-0.329142 0.18168,0 0.32914,0.147461 0.32914,0.329142 m -9.75783,-0.0635 c 0,0.18168 -0.14746,0.329141 -0.32914,0.329141 -0.18168,0 -0.32914,-0.147461 -0.32914,-0.329141 0,-0.181681 0.14746,-0.329142 0.32914,-0.329142 0.18168,0 0.32914,0.147461 0.32914,0.329142 m -10.96433,-0.931334 c 0,0.181681 -0.14746,0.329142 -0.32914,0.329142 -0.18168,0 -0.32914,-0.147461 -0.32914,-0.329142 0,-0.18168 0.14746,-0.329141 0.32914,-0.329141 0.18168,0 0.32914,0.147461 0.32914,0.329141 m -8.128,-0.592666 c 0,0.18168 -0.14746,0.329141 -0.32914,0.329141 -0.18168,0 -0.32914,-0.147461 -0.32914,-0.329141 0,-0.18168 0.14746,-0.329142 0.32914,-0.329142 0.18168,0 0.32914,0.147462 0.32914,0.329142 M 103.0574,30.472107 c 0,0.18168 -0.14746,0.329141 -0.32914,0.329141 -0.18168,0 -0.32915,-0.147461 -0.32915,-0.329141 0,-0.181681 0.14747,-0.329142 0.32915,-0.329142 0.18168,0 0.32914,0.147461 0.32914,0.329142 M 94.209731,30.06994 c 0,0.181681 -0.14746,0.329142 -0.329141,0.329142 -0.181679,0 -0.329142,-0.147461 -0.329142,-0.329142 0,-0.18168 0.147463,-0.329142 0.329142,-0.329142 0.181681,0 0.329141,0.147462 0.329141,0.329142 m -0.889,9.419166 c 0,0.181681 -0.14746,0.329142 -0.329139,0.329142 -0.181681,0 -0.329141,-0.147461 -0.329141,-0.329142 0,-0.181681 0.14746,-0.329142 0.329141,-0.329142 0.181679,0 0.329139,0.147461 0.329139,0.329142 m 3.831167,5.037667 c 0,0.18168 -0.14746,0.329141 -0.329142,0.329141 -0.181678,0 -0.329141,-0.147461 -0.329141,-0.329141 0,-0.181681 0.147463,-0.329142 0.329141,-0.329142 0.181682,0 0.329142,0.147461 0.329142,0.329142 m 10.604502,-0.3175 c 0,0.18168 -0.14746,0.329141 -0.32914,0.329141 -0.18168,0 -0.32915,-0.147461 -0.32915,-0.329141 0,-0.181681 0.14747,-0.329142 0.32915,-0.329142 0.18168,0 0.32914,0.147461 0.32914,0.329142 m 9.50383,-0.211667 c 0,0.18168 -0.14746,0.329142 -0.32914,0.329142 -0.18168,0 -0.32914,-0.147462 -0.32914,-0.329142 0,-0.181681 0.14746,-0.329142 0.32914,-0.329142 0.18168,0 0.32914,0.147461 0.32914,0.329142 m 7.493,-1.100667 c 0,0.181681 -0.14746,0.329142 -0.32914,0.329142 -0.18168,0 -0.32914,-0.147461 -0.32914,-0.329142 0,-0.18168 0.14746,-0.329141 0.32914,-0.329141 0.18168,0 0.32914,0.147461 0.32914,0.329141 m 9.0805,-0.762 c 0,0.181681 -0.14746,0.329142 -0.32914,0.329142 -0.18168,0 -0.32914,-0.147461 -0.32914,-0.329142 0,-0.18168 0.14746,-0.329141 0.32914,-0.329141 0.18168,0 0.32914,0.147461 0.32914,0.329141 m 7.51416,0.423334 c 0,0.18168 -0.14746,0.329141 -0.32914,0.329141 -0.18168,0 -0.32914,-0.147461 -0.32914,-0.329141 0,-0.181681 0.14746,-0.329142 0.32914,-0.329142 0.18168,0 0.32914,0.147461 0.32914,0.329142 M 92.680088,23.105754 104.47486,24.05649 m 0,3.44e-4 8.31144,-0.786342 m 0,0 7.75335,-0.201436 m 0,0 10.16741,-0.722136 m 0,0 10.03018,-0.155575 m 0,0 0.91404,10.478205 m 0,0 -9.76488,-0.05468 m 0,0 -10.95375,-0.932744 m 0,0 -8.12835,-0.603602 m 0,0 -10.07569,-0.612422 m 0,0 -8.84167,-0.393348 m 0,0 -0.886881,9.408583 m 0,0 3.831164,5.047191 m 0,0 10.597087,-0.310797 m 0,0 9.4996,-0.21978 m 0,0 7.50676,-1.097139 m 0,0 9.07027,-0.758825"
       style="fill:none;stroke:#000000;stroke-width:0.05503333;stroke-linecap:butt;stroke-linejoin:round;stroke-miterlimit:10;stroke-dasharray:none;stroke-opacity:1"
       id="path36"
       inkscape:connector-curvature="0" />
    <path
       d="m 133.50494,42.141995 7.51558,0.411339 m -48.340432,-19.44758 1.206852,6.967008 m 10.58792,-6.015919 -1.74625,6.409267 m 38.92267,2.203449 -0.63076,9.883775 m -28.23422,-19.282833 0.018,7.808031 m 19.08211,1.536346 1.61854,9.527117 m -12.96529,-19.07293 0.393,8.613069 m 9.77441,-9.335205 1.17934,10.267949 m -10.95375,-0.932744 3.50202,11.218686 m -11.63037,-11.822288 4.12361,12.919427 m -14.1993,-13.531849 4.6997,13.751629"
       style="fill:none;stroke:#000000;stroke-width:0.05503333;stroke-linecap:butt;stroke-linejoin:round;stroke-miterlimit:10;stroke-dasharray:none;stroke-opacity:1"
       id="path38"
       inkscape:connector-curvature="0" />
    <text
       xml:space="preserve"
       style="font-style:normal;font-variant:normal;font-weight:normal;font-stretch:normal;font-size:4.97682142px;line-height:125%;font-family:arial;-inkscape-font-specification:arial;text-align:center;letter-spacing:0px;word-spacing:0px;text-anchor:middle;fill:#000000;fill-opacity:1;stroke:none;stroke-width:0.26458332px;stroke-linecap:butt;stroke-linejoin:miter;stroke-opacity:1"
       x="65.870819"
       y="50.939583"
       id="text2184"><tspan
         sodipodi:role="line"
         id="tspan2182"
         x="65.870819"
         y="50.939583"
         style="font-size:3.52777767px;stroke-width:0.26458332px">initial temporal neighbours</tspan><tspan
         sodipodi:role="line"
         x="65.870819"
         y="57.560188"
         style="font-size:3.52777767px;stroke-width:0.26458332px"
         id="tspan2207">for 'S'-topology</tspan></text>
    <text
       xml:space="preserve"
       style="font-style:normal;font-variant:normal;font-weight:normal;font-stretch:normal;font-size:4.97682142px;line-height:125%;font-family:arial;-inkscape-font-specification:arial;text-align:center;letter-spacing:0px;word-spacing:0px;text-anchor:middle;fill:#000000;fill-opacity:1;stroke:none;stroke-width:0.26458332px;stroke-linecap:butt;stroke-linejoin:miter;stroke-opacity:1"
       x="118.89604"
       y="50.523335"
       id="text2184-3"><tspan
         sodipodi:role="line"
         id="tspan2182-6"
         x="119.38525"
         y="50.523335"
         style="font-size:3.52777767px;stroke-width:0.26458332px">refined spatial neighbours </tspan></text>
  </g>
</svg>
